<?xml version="1.0" encoding="utf-8"?>
<!-- Generator: Adobe Illustrator 16.0.0, SVG Export Plug-In . SVG Version: 6.00 Build 0)  -->
<!DOCTYPE svg PUBLIC "-//W3C//DTD SVG 1.1//EN" "http://www.w3.org/Graphics/SVG/1.1/DTD/svg11.dtd">
<svg version="1.1" id="Layer_1" xmlns="http://www.w3.org/2000/svg" xmlns:xlink="http://www.w3.org/1999/xlink" x="0px" y="0px"
	 width="75.5px" height="78px" viewBox="197 1091.5 75.5 78" enable-background="new 197 1091.5 75.5 78" xml:space="preserve">
<g>
	<path id="instagram-circle-icon_2_" fill="#3E739D" stroke="#FFFFFF" stroke-miterlimit="10" d="M251.858,1111.783v4.425
		c0,0.709-0.575,1.284-1.285,1.284h-4.328c-0.71,0-1.285-0.575-1.285-1.284v-4.425c0-0.709,0.575-1.284,1.285-1.284h4.328
		C251.283,1110.499,251.858,1111.074,251.858,1111.783z M235.274,1133.583c3.258,0,5.898-2.641,5.898-5.898
		c0-3.257-2.641-5.897-5.898-5.897s-5.898,2.641-5.898,5.897C229.376,1130.942,232.017,1133.583,235.274,1133.583z M270.75,1127.5
		c0,19.883-16.117,36-36,36c-19.882,0-36-16.117-36-36s16.118-36,36-36C254.633,1091.5,270.75,1107.617,270.75,1127.5z
		 M255.519,1121.686h-11.827c1.205,1.693,1.917,3.763,1.917,5.999c0,5.722-4.639,10.36-10.36,10.36
		c-5.721,0-10.359-4.639-10.359-10.36c0-2.236,0.711-4.306,1.917-5.999h-11.774v18.156c0,4.422,3.586,8.007,8.008,8.007h24.472
		c4.423,0,8.008-3.585,8.008-8.007V1121.686z M235.248,1135.666c4.401,0,7.981-3.58,7.981-7.981c0-2.389-1.057-4.534-2.726-5.999
		c-0.586-0.513-1.246-0.941-1.964-1.269c-1.004-0.456-2.118-0.713-3.292-0.713c-1.173,0-2.287,0.257-3.292,0.713
		c-0.717,0.327-1.378,0.756-1.963,1.269c-1.669,1.465-2.726,3.61-2.726,5.999C227.268,1132.086,230.848,1135.666,235.248,1135.666z
		 M255.519,1115.158c0-4.422-3.586-8.007-8.008-8.007h-21.882v10.095h-1.642v-10.095h-0.948c-0.062,0-0.123,0.003-0.186,0.004
		v10.091h-1.642v-9.883c-0.397,0.093-0.784,0.215-1.156,0.364v9.519h-1.642v-8.622c-2.046,1.45-3.383,3.835-3.383,6.534v5.259
		h12.837c1.879-1.907,4.49-3.092,7.38-3.092s5.501,1.185,7.381,3.092h12.889L255.519,1115.158L255.519,1115.158z"/>
</g>
</svg>
