<?xml version="1.0" encoding="utf-8"?>
<!-- Generator: Adobe Illustrator 16.0.0, SVG Export Plug-In . SVG Version: 6.00 Build 0)  -->
<!DOCTYPE svg PUBLIC "-//W3C//DTD SVG 1.1//EN" "http://www.w3.org/Graphics/SVG/1.1/DTD/svg11.dtd">
<svg version="1.1" xmlns="http://www.w3.org/2000/svg" xmlns:xlink="http://www.w3.org/1999/xlink" x="0px" y="0px"
	 width="474.048px" height="1075px" viewBox="0 0 474.048 1075" enable-background="new 0 0 474.048 1075" xml:space="preserve">
<g id="Layer_1">
	
		<image overflow="visible" width="250" height="185" xlink:href="9ADFBA79D605735A.png"  transform="matrix(1 0 0 1 249.9629 624.0859)">
	</image>
	<path fill="none" stroke="#00703C" stroke-miterlimit="10" d="M202.705,469"/>
	<path fill="#D5A00E" d="M263.14,526.725c0.511,0.541,0.317,1.554-0.434,2.266l0,0c-0.752,0.712-1.774,0.85-2.285,0.31
		l-18.317-20.259c-0.512-0.539-0.748-1.084,0.004-1.795l0,0c0.751-0.712,1.513-0.349,2.024,0.191L263.14,526.725z"/>
	<path fill="#00703C" d="M241.628,508.625"/>
	<path fill="none" stroke="#D5A00E" stroke-width="2" stroke-miterlimit="10" d="M236.32,487.022
		c4.857,6.452,7.177,16.622,6.86,21.603c-5.86-0.136-13.445-4.399-21.503-10.499c-7.191-5.444-7.43-11.241-1.48-16.07
		S230.88,479.797,236.32,487.022z"/>
	<path fill="#00703C" d="M293.538,473.5c0,0-6.737,22.667-18.737,41.167s-23.168,36.64-24.838,36.64
		C249.963,551.307,293.575,520.333,293.538,473.5z"/>
	<path fill="#00703C" d="M201.295,473.5c0,0,6.737,22.667,18.737,41.167s23.168,36.641,24.838,36.641
		C244.87,551.307,201.258,520.333,201.295,473.5z"/>
	<path fill="#00703C" d="M290.027,469c0,0-36.32-3.811-43.23-3.678c-22.047,0.424-40.997,3.113-41.842,4.553
		C204.955,469.875,239.455,445,290.027,469z"/>
	<path fill="#D5A00E" d="M232.941,525.725c-0.511,0.541-0.317,1.554,0.434,2.266l0,0c0.752,0.712,1.774,0.85,2.285,0.31
		l18.317-20.259c0.512-0.539,0.748-1.084-0.004-1.795l0,0c-0.751-0.712-1.514-0.349-2.024,0.191L232.941,525.725z"/>
	<path fill="#00703C" d="M254.453,507.625"/>
	<path fill="none" stroke="#D5A00E" stroke-width="2" stroke-miterlimit="10" d="M259.761,486.022
		c-4.857,6.452-7.178,16.622-6.86,21.603c5.86-0.136,13.444-4.399,21.503-10.499c7.191-5.444,7.431-11.241,1.48-16.07
		S265.2,478.797,259.761,486.022z"/>
	<circle fill="#00703C" cx="247.204" cy="486.791" r="3.333"/>
</g>
<g id="Layer_2">
	<polygon fill="#D5A00E" points="360.038,793.167 344.372,788.334 358.872,788.334 	"/>
	<rect x="266.482" y="824.665" fill="none" width="242" height="82.667"/>
	<text transform="matrix(1 0 0 1 266.4824 841.7539)" font-family="'VeracruzSerial'" font-size="23">1966</text>
</g>
</svg>
